<?xml version="1.0" encoding="UTF-8" ?>
<!DOCTYPE svg PUBLIC "-//W3C//DTD SVG 1.1//EN" "http://www.w3.org/Graphics/SVG/1.1/DTD/svg11.dtd">
<svg width="600pt" height="600pt" viewBox="0 0 600 600" version="1.1" xmlns="http://www.w3.org/2000/svg">
<path fill="#f9fbf9" d=" M 0.00 0.00 L 600.00 0.00 L 600.00 600.00 L 0.00 600.00 L 0.00 0.00 Z" />
<path fill="#016501" d=" M 38.45 11.67 C 40.60 11.15 42.81 10.98 45.01 11.00 C 215.00 11.00 384.98 11.00 554.97 11.00 C 572.38 10.85 588.14 26.58 588.00 44.00 C 588.00 214.00 588.00 384.00 588.00 554.00 C 588.13 571.39 572.42 587.10 555.03 587.00 C 385.03 587.00 215.04 587.00 45.04 587.00 C 27.98 587.14 12.51 572.07 12.01 555.06 C 11.99 384.70 12.01 214.34 12.00 43.98 C 11.82 28.78 23.70 14.77 38.45 11.67 Z" />
<path fill="#f9fbf9" d=" M 427.76 154.56 C 433.03 154.51 437.88 156.97 441.90 160.20 C 450.01 166.71 456.64 174.82 463.08 182.94 C 472.30 194.26 480.21 206.68 486.23 219.99 C 487.20 222.29 488.21 224.58 489.20 226.88 C 490.08 229.28 490.99 231.68 491.83 234.11 C 492.30 235.37 492.74 236.64 493.21 237.92 C 494.15 241.28 495.14 244.63 496.22 247.96 C 496.40 249.00 496.60 250.04 496.80 251.09 C 497.61 254.06 498.37 257.05 498.84 260.10 C 499.45 262.35 499.58 264.70 500.22 266.95 C 500.82 271.96 501.61 276.95 501.89 282.01 C 502.95 288.61 502.54 295.36 502.76 302.03 C 502.89 311.78 502.59 321.53 501.28 331.20 C 500.85 333.19 500.54 335.21 500.27 337.23 C 499.74 339.45 499.46 341.72 498.89 343.93 C 498.55 345.28 498.26 346.64 497.92 348.00 C 497.57 349.31 497.27 350.64 496.92 351.96 C 496.26 354.34 495.58 356.71 494.98 359.12 L 495.01 357.06 C 494.62 359.45 494.03 361.80 493.25 364.10 C 492.73 365.36 492.25 366.64 491.75 367.92 C 491.11 369.57 490.45 371.23 489.80 372.88 C 482.25 391.03 471.41 407.67 458.58 422.51 C 454.50 427.46 450.09 432.14 445.32 436.43 C 440.89 440.09 435.89 443.70 429.99 444.28 C 424.58 444.12 418.61 437.88 421.65 432.50 C 424.51 426.72 429.49 422.44 433.83 417.82 C 460.52 392.29 477.73 356.94 480.58 320.05 C 482.57 298.91 480.90 277.42 475.97 256.77 C 469.34 230.12 455.96 204.98 436.67 185.35 C 432.11 180.56 426.91 176.32 423.15 170.83 C 421.61 168.48 420.02 165.84 420.47 162.90 C 420.82 158.87 424.41 156.22 427.76 154.56 Z" />
<path fill="#f9fbf9" d=" M 152.04 155.33 C 155.85 153.69 160.85 153.99 163.59 157.43 C 166.20 159.53 165.86 163.07 165.50 166.04 C 162.13 171.06 158.23 175.71 153.87 179.90 C 138.25 194.95 125.43 213.05 117.12 233.13 C 116.50 234.81 115.85 236.49 115.24 238.18 C 114.74 239.43 114.27 240.70 113.75 241.95 C 113.63 242.50 113.38 243.60 113.26 244.15 C 112.36 246.72 111.67 249.36 110.93 251.98 C 110.60 253.32 110.29 254.67 109.92 256.00 C 109.29 259.04 108.62 262.07 108.16 265.14 C 107.65 267.74 107.39 270.39 107.04 273.01 C 106.46 276.68 106.33 280.39 106.16 284.09 C 105.41 291.58 105.38 299.25 106.21 306.74 C 106.60 320.75 109.14 334.64 112.81 348.15 C 114.07 352.12 115.35 356.09 116.73 360.02 C 124.85 381.43 137.98 400.79 154.26 416.83 C 159.17 421.10 163.57 426.05 166.49 431.91 C 167.40 437.21 163.45 442.67 158.10 443.30 C 153.46 443.38 149.22 440.87 145.53 438.28 C 136.89 431.70 129.96 423.23 123.17 414.84 C 115.74 405.67 109.25 395.73 104.01 385.15 C 102.31 381.78 100.72 378.36 99.19 374.92 C 98.54 373.26 97.88 371.60 97.21 369.96 C 96.70 368.67 96.21 367.37 95.71 366.08 C 94.38 362.11 93.07 358.13 91.86 354.13 C 91.26 351.74 90.62 349.37 89.94 347.01 C 86.69 332.88 84.38 318.46 84.26 303.94 C 84.09 298.96 83.35 293.96 84.05 288.99 C 84.22 279.25 85.08 269.54 86.91 259.96 C 87.32 258.31 87.61 256.64 87.94 254.98 C 88.63 252.34 89.23 249.68 89.86 247.03 C 91.33 241.95 92.99 236.93 94.72 231.93 C 95.39 230.24 96.06 228.56 96.71 226.86 C 97.40 225.23 98.10 223.60 98.81 221.98 C 99.11 221.27 99.41 220.56 99.70 219.86 C 100.50 218.23 101.33 216.63 102.13 215.01 C 102.37 214.51 102.86 213.51 103.10 213.01 C 103.99 211.34 104.85 209.66 105.76 208.01 C 114.21 192.69 125.02 178.78 137.18 166.24 C 141.62 162.00 146.26 157.68 152.04 155.33 Z" />
<path fill="#f9fbf9" d=" M 252.26 171.81 C 256.49 169.32 261.51 170.41 266.12 170.68 C 280.04 174.00 293.23 181.65 301.56 193.47 C 306.00 199.64 309.07 206.70 310.97 214.04 C 311.64 217.04 312.33 220.04 312.88 223.07 C 313.29 225.06 313.55 227.08 313.86 229.10 C 315.09 235.42 316.20 241.77 318.06 247.95 C 319.70 251.75 321.89 257.20 326.99 256.56 C 333.33 256.81 337.84 249.91 335.92 244.07 C 335.60 242.75 335.32 241.42 334.95 240.12 C 334.26 238.43 333.59 236.74 332.92 235.06 C 331.51 232.34 330.09 229.63 328.45 227.05 C 328.43 225.31 329.22 224.07 330.83 223.32 C 339.01 227.69 345.50 234.50 351.62 241.32 C 356.68 246.87 360.92 253.14 364.19 259.90 C 364.85 261.55 365.55 263.20 366.25 264.84 C 367.30 267.88 368.21 270.95 369.06 274.05 C 369.42 275.69 369.74 277.33 370.13 278.97 C 370.41 281.30 370.66 283.64 371.20 285.94 C 371.73 294.28 371.88 302.66 371.16 311.00 C 369.99 317.17 368.55 323.30 366.21 329.14 C 359.14 345.47 346.12 358.98 330.46 367.31 C 328.76 368.36 326.75 368.47 324.82 368.62 C 323.72 367.19 322.65 365.69 322.29 363.88 C 331.49 354.83 340.81 344.95 344.27 332.15 C 345.17 327.48 345.71 322.74 345.17 318.00 C 344.47 313.88 343.56 309.80 342.29 305.82 C 339.45 299.84 336.26 292.45 329.12 290.82 C 329.39 295.36 331.27 299.56 332.31 303.94 C 332.34 304.96 332.38 305.98 332.43 307.01 C 330.71 311.00 326.94 313.08 322.93 314.19 C 320.61 314.22 318.20 314.66 315.99 313.75 C 312.52 312.97 310.64 309.73 308.91 306.94 C 308.19 302.33 308.18 297.64 308.84 293.01 C 310.51 287.35 309.86 281.18 307.27 275.90 C 303.80 269.44 298.31 264.34 291.95 260.79 C 290.49 260.72 289.04 260.68 287.58 260.68 C 286.61 262.73 287.58 264.68 289.20 265.94 C 291.31 267.75 292.34 270.36 293.39 272.86 C 293.50 275.93 293.49 279.00 293.34 282.08 C 291.81 287.36 289.36 292.46 285.26 296.24 C 277.10 304.01 266.61 310.21 262.12 321.06 C 261.65 322.35 261.21 323.66 260.69 324.94 C 260.17 330.92 259.94 337.02 261.13 342.94 C 261.30 343.72 261.63 345.28 261.79 346.06 C 262.15 347.08 262.46 348.11 262.77 349.15 C 263.40 350.80 264.05 352.44 264.67 354.10 C 267.98 360.82 272.96 366.94 279.78 370.32 C 282.05 371.25 286.87 371.47 285.31 374.98 C 284.80 375.39 283.78 376.21 283.27 376.62 C 261.76 370.99 242.30 356.44 232.75 336.12 C 231.26 332.51 229.91 328.85 228.89 325.09 C 228.58 323.68 228.25 322.28 227.89 320.90 C 226.75 310.95 226.47 300.56 230.19 291.09 C 237.96 270.36 252.76 253.41 262.70 233.81 C 263.19 232.89 263.67 231.97 264.16 231.06 C 269.17 220.95 272.49 209.46 270.02 198.18 C 268.13 190.77 264.00 183.94 258.24 178.91 C 255.96 176.77 251.73 175.68 252.26 171.81 Z" />
<path fill="#f9fbf9" d=" M 192.54 404.27 C 193.74 401.89 196.08 400.52 198.04 398.86 C 201.99 398.24 206.00 398.35 209.99 398.39 C 269.65 398.39 329.31 398.39 388.97 398.39 C 393.71 398.39 398.45 398.32 403.19 398.54 C 407.08 400.44 409.96 403.76 411.38 407.85 C 411.36 409.26 411.35 410.68 411.32 412.10 C 410.95 413.14 410.59 414.19 410.26 415.25 C 407.92 418.63 404.55 422.15 400.05 421.73 C 333.72 421.69 267.39 421.77 201.06 421.69 C 192.94 421.21 188.63 410.94 192.54 404.27 Z" />
</svg>
